<?xml version="1.0"?>
<svg xmlns="http://www.w3.org/2000/svg" xmlns:xlink="http://www.w3.org/1999/xlink" xmlns:svgjs="http://svgjs.com/svgjs" version="1.1" width="512" height="512" x="0" y="0" viewBox="0 0 512 512" style="enable-background:new 0 0 512 512" xml:space="preserve" class=""><g><g xmlns="http://www.w3.org/2000/svg"><path d="m256 15c-133.1 0-241 107.899-241 241h482c0-133.101-107.9-241-241-241z" fill="#99daff" data-original="#99daff" style="" class=""/><path d="m497 256c0-133.101-107.899-241-241-241v241z" fill="#53acf5" data-original="#53acf5" style="" class=""/><path d="m437.02 74.98c-48.353-48.351-112.64-74.98-181.02-74.98s-132.667 26.629-181.02 74.98c-48.351 48.353-74.98 112.64-74.98 181.02h512c0-68.38-26.629-132.667-74.98-181.02zm-316.289 166.02h-90.239c2.142-32.51 11.2-63.158 25.696-90.5h76.001c-6.611 28.252-10.518 58.843-11.458 90.5zm-45.477-120.5c26.271-34.955 62.424-62.073 104.278-77.169-7.978 10.182-15.407 22.052-22.156 35.548-6.415 12.83-12.045 26.785-16.858 41.621zm165.746 120.5h-90.257c1.003-31.981 5.205-62.651 12.299-90.5h77.958zm0-120.5h-68.794c3.589-9.943 7.591-19.38 12.004-28.205 15.96-31.92 36.062-52.854 56.79-59.771zm30-87.976c20.728 6.917 40.83 27.851 56.79 59.771 4.412 8.824 8.415 18.262 12.004 28.205h-68.794zm0 208.476v-90.5h77.958c7.094 27.849 11.296 58.519 12.299 90.5zm83.623-162.121c-6.748-13.496-14.177-25.366-22.155-35.548 41.854 15.096 78.007 42.214 104.278 77.169h-65.265c-4.813-14.836-10.443-28.791-16.858-41.621zm25.188 71.621h76.001c14.496 27.342 23.554 57.99 25.696 90.5h-90.239c-.94-31.657-4.847-62.248-11.458-90.5z" fill="#00d1b2" data-original="#4793ff" style="" class=""/><path d="m256 0v256h256c0-68.38-26.629-132.667-74.98-181.02-48.353-48.351-112.64-74.98-181.02-74.98zm15 32.524c20.728 6.917 40.83 27.851 56.79 59.771 4.412 8.824 8.415 18.262 12.004 28.205h-68.794zm0 208.476v-90.5h77.958c7.094 27.849 11.296 58.519 12.299 90.5zm83.623-162.121c-6.748-13.496-14.177-25.366-22.155-35.548 41.854 15.096 78.007 42.214 104.278 77.169h-65.265c-4.813-14.836-10.443-28.791-16.858-41.621zm126.885 162.121h-90.239c-.94-31.657-4.846-62.248-11.458-90.5h76.001c14.496 27.342 23.554 57.99 25.696 90.5z" fill="#00d1b2" data-original="#424fdd" style="" class=""/><path d="m497 512h-482c-8.284 0-15-6.716-15-15v-241c0-8.284 6.716-15 15-15h482c8.284 0 15 6.716 15 15v241c0 8.284-6.716 15-15 15z" fill="#ebfaff" data-original="#ebfaff" style="" class=""/><path d="m497 241h-241v271h241c8.284 0 15-6.716 15-15v-241c0-8.284-6.716-15-15-15z" fill="#c3e6ff" data-original="#c3e6ff" style="" class=""/><path d="m30 271h452v211h-452z" fill="#ffea98" data-original="#ffea98" style="" class=""/><path d="m256 271h226v211h-226z" fill="#ffb454" data-original="#ffb454" style="" class=""/><g fill="#5e54ac"><path d="m146.191 330.879c-.066-6.863-5.649-12.379-12.497-12.379-.041 0-.083 0-.123 0-6.903.067-12.446 5.717-12.379 12.62l.491 50.768-39.931-57.823c-3.109-4.502-8.784-6.46-14.006-4.831-5.223 1.628-8.78 6.463-8.78 11.934v89.832c0 6.903 5.597 12.5 12.5 12.5 6.904 0 12.5-5.597 12.5-12.5v-49.733l37.958 54.965c3.624 5.234 9.687 7.454 15.449 5.655 5.869-1.833 9.66-7.297 9.66-13.919 0-.041 0-.081 0-.121z" fill="#453d81" data-original="#5e54ac" style="" class=""/><path d="m214.961 343.5c6.903 0 12.5-5.597 12.5-12.5s-5.597-12.5-12.5-12.5h-37.922c-6.904 0-12.5 5.597-12.5 12.5v90c0 6.903 5.596 12.5 12.5 12.5h37.922c6.903 0 12.5-5.597 12.5-12.5s-5.597-12.5-12.5-12.5h-25.422v-20h22.626c6.903 0 12.5-5.596 12.5-12.5s-5.597-12.5-12.5-12.5h-22.626v-20z" fill="#453d81" data-original="#5e54ac" style="" class=""/><path d="m354.192 318.906c-6.772-1.344-13.353 3.048-14.7 9.82l-9.464 47.552-15.082-48.958c-2.033-6.597-9.029-10.3-15.626-8.266-4.443 1.369-7.563 4.992-8.513 9.225l-14.86 48.01-9.438-47.714c-1.34-6.773-7.918-11.177-14.688-9.837-6.772 1.339-11.177 7.916-9.837 14.688l17.534 88.648c.119.599.281 1.188.485 1.764 2.06 5.791 7.553 9.663 13.691 9.663h.102c6.179-.043 11.667-4.002 13.656-9.852.037-.109.073-.219.107-.329l15.436-49.869 15.366 49.879c.053.169.107.336.167.503 2.058 5.793 7.552 9.668 13.692 9.668h.098c6.181-.042 11.67-4 13.66-9.852.177-.518.318-1.048.426-1.585l17.605-88.457c1.35-6.772-3.046-13.354-9.817-14.701z" fill="#453d81" data-original="#5e54ac" style="" class=""/></g><path d="m354.192 318.906c-6.772-1.344-13.353 3.048-14.7 9.82l-9.464 47.552-15.082-48.958c-2.033-6.597-9.029-10.3-15.626-8.266-4.443 1.369-7.563 4.992-8.513 9.225l-14.86 48.01-9.438-47.714c-1.059-5.355-5.396-9.215-10.51-9.941v85.646l3.52 17.794c.119.599.281 1.188.485 1.764 2.06 5.791 7.553 9.663 13.691 9.663h.102c6.179-.043 11.667-4.002 13.656-9.852.037-.109.073-.219.107-.329l15.436-49.869 15.366 49.879c.053.169.107.336.167.503 2.058 5.793 7.552 9.668 13.692 9.668h.098c6.181-.042 11.67-4 13.66-9.852.177-.518.318-1.048.426-1.585l17.605-88.457c1.349-6.772-3.047-13.354-9.818-14.701z" fill="#453d81" data-original="#453d81" style="" class=""/><path d="m427.281 364.982c-10.839-3.998-20.945-8.348-24.271-9.801-1.829-1.571-1.762-3.705-1.632-4.606.193-1.351 1.194-4.659 6.281-6.191 12.136-3.657 23.514 5.413 23.626 5.504l-.08-.066.011-.013c2.176 1.834 4.984 2.944 8.052 2.944 6.904 0 12.5-5.597 12.5-12.5 0-4.005-1.891-7.561-4.82-9.849-2.894-2.312-22.7-17.13-46.499-9.958-12.896 3.885-22.021 14.068-23.816 26.576-1.689 11.767 3.412 23.086 13.313 29.542.553.36 1.132.676 1.734.944.522.233 12.953 5.767 26.949 10.929 2.849 1.051 12.061 4.939 11.003 10.86-.808 4.523-6.449 9.203-14.491 9.203-8.599 0-16.86-3.452-22.101-9.234-4.637-5.115-12.54-5.505-17.656-.869s-5.505 12.541-.869 17.656c10.048 11.088 24.855 17.447 40.626 17.447 19.573 0 36.018-12.536 39.102-29.808 2.329-13.047-3.531-30.067-26.962-38.71z" fill="#453d81" data-original="#453d81" style="" class=""/></g></g></svg>
